HIERARCHY
ROOT SpineBase
{
  OFFSET 0.000000 0.000000 0.000000
  CHANNELS 6 Xposition Yposition Zposition Zrotation Xrotation Yrotation
  JOINT SpineMid
  {
    OFFSET 0.000000 26.608716 0.000000
    CHANNELS 3 Zrotation Xrotation Yrotation
    JOINT SpineShoulder
    {
      OFFSET 0.202761 19.884478 -0.678937
      CHANNELS 3 Zrotation Xrotation Yrotation
      JOINT Neck
      {
        OFFSET 0.123768 6.631757 -0.524667
        CHANNELS 3 Zrotation Xrotation Yrotation
        JOINT Head
        {
          OFFSET 3.280796 12.507708 -1.400966
          CHANNELS 3 Zrotation Xrotation Yrotation
          End Site
          {
            OFFSET 0 0 0
          }
        }
      }
      JOINT ShoulderLeft
      {
        OFFSET -13.476736 0.303857 -8.111038
        CHANNELS 3 Zrotation Xrotation Yrotation
        JOINT ElbowLeft
        {
          OFFSET -4.410911 -19.128202 -6.561792
          CHANNELS 3 Zrotation Xrotation Yrotation
          JOINT WristLeft
          {
            OFFSET 8.212372 -12.943813 -16.639235
            CHANNELS 3 Zrotation Xrotation Yrotation
            JOINT HandLeft
            {
              OFFSET 3.997006 -3.242631 -6.631407
              CHANNELS 3 Zrotation Xrotation Yrotation
              JOINT HandTipLeft
              {
                OFFSET 2.913170 -4.007599 -4.207420
                CHANNELS 3 Zrotation Xrotation Yrotation
                End Site
                {
                  OFFSET 0 0 0
                }
              }
              JOINT ThumbLeft
              {
                OFFSET 2.577819 0.444024 -0.004423
                CHANNELS 3 Zrotation Xrotation Yrotation
                End Site
                {
                  OFFSET 0 0 0
                }
              }
            }
          }
        }
      }
      JOINT ShoulderRight
      {
        OFFSET 13.233783 -2.041389 7.622799
        CHANNELS 3 Zrotation Xrotation Yrotation
        JOINT ElbowRight
        {
          OFFSET 4.021509 -21.781756 3.112399
          CHANNELS 3 Zrotation Xrotation Yrotation
          JOINT WristRight
          {
            OFFSET 10.979883 -10.167274 -16.124646
            CHANNELS 3 Zrotation Xrotation Yrotation
            JOINT HandRight
            {
              OFFSET 4.091069 -2.546173 -5.286409
              CHANNELS 3 Zrotation Xrotation Yrotation
              JOINT HandTipRight
              {
                OFFSET 3.744015 -0.533492 -2.888083
                CHANNELS 3 Zrotation Xrotation Yrotation
                End Site
                {
                  OFFSET 0 0 0
                }
              }
              JOINT ThumbRight
              {
                OFFSET -2.706610 -2.461413 -1.839257
                CHANNELS 3 Zrotation Xrotation Yrotation
                End Site
                {
                  OFFSET 0 0 0
                }
              }
            }
          }
        }
      }
    }
  }
  JOINT HipLeft
  {
    OFFSET -6.085090 1.497216 -6.404846
    CHANNELS 3 Zrotation Xrotation Yrotation
    JOINT KneeLeft
    {
      OFFSET 7.543244 5.933555 -31.502510
      CHANNELS 3 Zrotation Xrotation Yrotation
      JOINT AnkleLeft
      {
        OFFSET -1.060746 -35.739748 -0.397822
        CHANNELS 3 Zrotation Xrotation Yrotation
        JOINT FootLeft
        {
          OFFSET 5.704955 -2.617035 -11.788540
          CHANNELS 3 Zrotation Xrotation Yrotation
          End Site
          {
            OFFSET 0 0 0
          }
        }
      }
    }
  }
  JOINT HipRight
  {
    OFFSET 7.165373 1.121638 0.106209
    CHANNELS 3 Zrotation Xrotation Yrotation
    JOINT KneeRight
    {
      OFFSET 24.083535 1.822310 -15.632844
      CHANNELS 3 Zrotation Xrotation Yrotation
      JOINT AnkleRight
      {
        OFFSET -5.193028 -31.935620 -6.927286
        CHANNELS 3 Zrotation Xrotation Yrotation
        JOINT FootRight
        {
          OFFSET 5.470075 -2.655130 -11.843972
          CHANNELS 3 Zrotation Xrotation Yrotation
          End Site
          {
            OFFSET 0 0 0
          }
        }
      }
    }
  }
}
MOTION
Frames: 9
Frame Time: 0.033333
-63.522466 32.837534 369.406445 -0.000000 0.000000 -26.168728 0.000000 -0.000000 26.168728 -0.000000 0.000000 0.000000 -0.000000 0.000000 0.000000 0.000000 0.000000 0.000000 -0.000000 0.000000 0.000000 -0.000000 0.000000 0.000000 -0.000000 0.000000 0.000000 -0.000000 0.000000 0.000000 0.000000 0.000000 0.000000 0.000000 0.000000 0.000000 -0.000000 0.000000 0.000000 -0.000000 0.000000 0.000000 -0.000000 0.000000 0.000000 -0.000000 0.000000 0.000000 0.000000 0.000000 0.000000 0.000000 0.000000 0.000000 0.000000 -0.000000 26.168728 -0.000000 0.000000 0.000000 -0.000000 0.000000 0.000000 0.000000 0.000000 0.000000 0.000000 -0.000000 26.168728 -0.000000 0.000000 0.000000 -0.000000 0.000000 0.000000 0.000000 0.000000 0.000000
-63.560514 32.613547 369.350861 -0.143204 0.304214 -26.177725 0.262723 -0.209834 26.178586 -0.000000 0.000000 0.000000 -0.433192 -0.959447 0.199138 0.000000 0.000000 0.000000 -0.000000 0.000000 0.000000 -0.000000 0.000000 0.000000 -0.000000 0.000000 0.000000 2.166602 1.722463 -1.025008 0.000000 0.000000 0.000000 0.000000 0.000000 0.000000 0.634906 0.517874 0.183398 -0.129235 0.437254 0.038519 1.261857 3.067300 2.316992 -7.067985 -6.872234 5.124312 0.000000 0.000000 0.000000 0.000000 0.000000 0.000000 0.262723 -0.209834 26.178586 -0.000000 0.000000 0.000000 -0.000000 0.000000 0.000000 0.000000 0.000000 0.000000 0.262723 -0.209834 26.178586 -0.000000 0.000000 0.000000 -0.000000 0.000000 0.000000 0.000000 0.000000 0.000000
-63.584867 32.421057 369.310209 -0.227930 0.562851 -26.190534 0.452957 -0.404456 26.193252 -0.000000 0.000000 0.000000 -0.904698 -1.872650 0.373662 0.000000 0.000000 0.000000 -0.774085 0.565761 0.138456 1.495197 -0.358985 -0.914648 -0.718991 -0.220126 0.788302 3.852874 3.042431 -1.840295 0.000000 0.000000 0.000000 0.000000 0.000000 0.000000 1.177968 0.912444 0.327162 -0.178227 0.951172 0.074269 2.758722 7.038861 4.911002 -13.349508 -13.269708 6.486182 0.000000 0.000000 0.000000 0.000000 0.000000 0.000000 0.452957 -0.404456 26.193252 -0.000000 0.000000 0.000000 -0.000000 0.000000 0.000000 0.000000 0.000000 0.000000 0.949208 0.444378 26.034622 -0.818488 -0.544864 0.154565 -0.000000 0.000000 0.000000 0.000000 0.000000 0.000000
-63.595525 32.260065 369.284489 -0.253241 0.774641 -26.207727 0.367571 0.219030 26.209364 0.229528 0.068993 0.019208 -1.821773 -3.620888 0.483812 0.000000 0.000000 0.000000 -1.370140 -0.061564 0.116599 1.988072 -0.449235 -1.192478 -1.580277 -1.159632 1.311435 5.671500 4.728109 -2.749717 0.000000 0.000000 0.000000 0.000000 0.000000 0.000000 1.225485 0.305832 0.440305 -0.124086 1.583792 0.119184 4.287880 11.453695 7.416882 -19.184988 -18.667952 5.151960 0.000000 0.000000 0.000000 0.000000 0.000000 0.000000 0.384978 0.222296 26.199785 -0.190207 -0.804087 0.010636 -0.000000 0.000000 0.000000 0.000000 0.000000 0.000000 1.262967 0.597734 26.040709 -1.141709 -0.756424 0.164002 -0.000000 0.000000 0.000000 0.000000 0.000000 0.000000
-63.592488 32.130569 369.273701 -0.218518 0.938568 -26.229700 0.483351 0.291763 26.236646 0.287965 0.060412 0.030947 -2.608589 -4.622062 0.578573 0.000000 0.000000 0.000000 -1.660428 -0.003419 0.066155 2.315065 -0.475649 -1.360970 -1.948917 -1.547097 1.534795 6.544047 5.514563 -3.142553 0.000000 0.000000 0.000000 0.000000 0.000000 0.000000 1.354974 0.286432 0.506389 0.051740 2.368588 0.179556 5.605289 15.410324 9.330836 -24.156987 -22.626968 2.575698 0.000000 0.000000 0.000000 0.000000 0.000000 0.000000 0.387410 0.247715 26.243335 -0.238702 -0.989487 -0.010904 -0.000000 0.000000 0.000000 0.000000 0.000000 0.000000 1.467574 0.706616 26.095041 -1.408150 -0.926984 0.129319 -0.000000 0.000000 0.000000 0.000000 0.000000 0.000000
-63.575756 32.032571 369.277845 -0.123474 1.053874 -26.256661 0.595118 0.363497 26.270482 0.336740 0.036016 0.045242 -3.488805 -5.523987 0.642897 0.000000 0.000000 0.000000 -1.864267 0.094519 -0.027505 2.478778 -0.434952 -1.425636 -2.248252 -1.934525 1.659392 6.916709 5.955244 -3.245883 0.000000 0.000000 0.000000 0.000000 0.000000 0.000000 1.347986 0.213550 0.532697 0.366565 3.336499 0.257388 6.504862 17.854909 10.211976 -27.266314 -24.890123 0.324212 0.000000 0.000000 0.000000 0.000000 0.000000 0.000000 0.325377 0.250241 26.302832 -0.279944 -1.134122 -0.044728 -0.000000 0.000000 0.000000 0.000000 0.000000 0.000000 1.562327 0.771848 26.197175 -1.618150 -1.056429 0.051207 -0.000000 0.000000 0.000000 0.000000 0.000000 0.000000
-63.623471 31.967407 369.272018 -0.087461 1.190601 -26.126985 0.853241 0.496419 26.152275 0.353164 0.015708 0.061119 -4.593288 -6.524764 0.680078 0.000000 0.000000 0.000000 -1.865897 0.154724 -0.212572 2.415925 -0.222838 -1.366007 -3.112495 -3.135683 2.036484 7.053873 6.632273 -3.159693 0.000000 0.000000 0.000000 0.000000 0.000000 0.000000 0.906561 -0.284867 0.430710 1.619660 5.346030 0.204691 5.312537 14.293825 8.599309 -24.226864 -23.121393 1.750223 0.000000 0.000000 0.000000 0.000000 0.000000 0.000000 0.311628 0.192763 26.038483 -0.275308 -1.226862 0.089756 -0.000000 0.000000 0.000000 0.000000 0.000000 0.000000 1.673703 0.770009 26.027810 -1.752472 -1.147733 0.090384 -0.000000 0.000000 0.000000 0.000000 0.000000 0.000000
-63.535102 31.926809 369.281644 0.202608 1.170575 -26.200757 0.980023 0.549996 26.238037 0.472065 -0.116054 0.095686 -5.935010 -6.695979 0.575664 0.000000 0.000000 0.000000 -1.998376 0.462635 -0.431940 2.164335 0.278442 -0.998286 -3.077917 -3.840912 1.298949 5.138603 5.781651 -1.584462 0.000000 0.000000 0.000000 0.000000 0.000000 0.000000 0.576328 0.096881 0.444021 3.132100 7.791136 0.125202 2.798753 6.792350 5.029893 -19.957787 -19.704419 4.221724 0.000000 0.000000 0.000000 0.000000 0.000000 0.000000 0.042102 0.158065 26.201464 -0.965899 -1.854177 0.000461 0.655523 0.560253 -0.027133 0.000000 0.000000 0.000000 1.485437 0.786811 26.237270 -1.883822 -1.219263 -0.051753 -0.000000 0.000000 0.000000 0.000000 0.000000 0.000000
-63.536339 31.903862 369.343983 0.388273 1.087284 -26.438822 1.096611 0.670735 26.485266 0.521131 -0.234804 0.120610 -7.158762 -7.221274 0.552964 0.000000 0.000000 0.000000 -1.870793 0.795889 -0.684587 1.317401 -0.470303 -0.720342 -1.602048 -1.308565 1.240153 4.161277 2.855768 -2.278042 0.000000 0.000000 0.000000 0.000000 0.000000 0.000000 0.635108 0.439157 0.500450 2.922978 8.375697 0.396242 4.997523 7.737757 2.958509 -18.966454 -19.743781 2.817946 0.000000 0.000000 0.000000 0.000000 0.000000 0.000000 -0.124597 0.033795 26.494896 -1.105874 -1.893509 -0.055220 0.812091 0.721394 -0.035568 0.000000 0.000000 0.000000 1.339201 0.873109 26.634841 -1.980812 -1.265733 -0.217351 -0.000000 0.000000 0.000000 0.000000 0.000000 0.000000
